PathFileType	4	(X/Y/Z)	./resultDataOpenSim/trcMotMarkerGrf/sub09/qtm-12-06.trc
DataRate	CameraRate	NumFrames	NumMarkers	Units	OrigDataRate	OrigDataStartFrame	OrigNumFrames
250.000000	250.000000	13	24	m	250.000000	61	480
Frame#	Time	L.Toe.Tip			R.Toe.Tip			L.Ankle.Lat			R.Ankle.Lat			L.Ankle.Med			R.Ankle.Med			L.Heel			R.Heel			L.Knee.Lat			R.Knee.Lat			L.Knee.Med			R.Knee.Med			L.Thigh.Upper			R.Thigh.Upper			L.ASIS			R.ASIS			V.Sacral			L.Acromium			R.Acromium			C7			L.Elbow			R.Elbow			L.Wrist.Lat			R.Wrist.Lat
		X1	Y1	Z1	X2	Y2	Z2	X3	Y3	Z3	X4	Y4	Z4	X5	Y5	Z5	X6	Y6	Z6	X7	Y7	Z7	X8	Y8	Z8	X9	Y9	Z9	X10	Y10	Z10	X11	Y11	Z11	X12	Y12	Z12	X13	Y13	Z13	X14	Y14	Z14	X15	Y15	Z15	X16	Y16	Z16	X17	Y17	Z17	X18	Y18	Z18	X19	Y19	Z19	X20	Y20	Z20	X21	Y21	Z21	X22	Y22	Z22	X23	Y23	Z23	X24	Y24	Z24

61	0.24	-1.4111013	0.074764101	-0.035293248	-0.63660748	0.039926295	0.10412844	-1.424191	0.22816872	-0.094000233	-0.78276578	0.053858836	0.14238269	-1.4034058	0.21951993	0.0008843505	-0.77990704	0.090561321	0.049337377	-1.4856225	0.27739089	-0.05192792	-0.85163626	0.031568584	0.095335898	-1.0559177	0.42436473	-0.10998944	-0.76750128	0.51046791	0.18885674	-1.0513374	0.41196347	0.015842179	-0.78455357	0.49423006	0.063624973	-1.000862	0.8304469	-0.1243427	-0.97812681	0.85802513	0.2481325	-0.90818312	0.91674236	-0.070353556	-0.90454216	0.94665213	0.16960253	-1.0733511	0.98378674	0.051292618	-0.88858749	1.3761732	-0.10817923	-0.93176389	1.3893032	0.21827415	-0.97702226	1.4367354	0.04924203	-1.0088318	1.021694	-0.18123225	-1.0909552	1.0611545	0.29301469	-0.79639112	0.85412369	-0.17322768	-0.9766622	0.81555572	0.320786
62	0.244	-1.4002267	0.077783433	-0.036931931	-0.63653693	0.039855445	0.1039059	-1.4123331	0.23160729	-0.093978834	-0.78268415	0.053668181	0.14200354	-1.3916345	0.22244264	0.0010184505	-0.77979045	0.090479588	0.049130816	-1.4733714	0.28120348	-0.051587234	-0.85147661	0.032019317	0.095175184	-1.042425	0.42378518	-0.10941202	-0.76321324	0.51034789	0.18854916	-1.0397092	0.4120436	0.01675061	-0.78094475	0.49426785	0.063324748	-0.99392369	0.83071512	-0.12381386	-0.97140514	0.85889939	0.24843486	-0.90207351	0.917631	-0.070098302	-0.89812402	0.94745375	0.16997269	-1.0669312	0.98476351	0.052125014	-0.88239267	1.376955	-0.10802755	-0.92516245	1.3901824	0.21844881	-0.9709159	1.4377351	0.049284766	-1.0031949	1.0227863	-0.18093623	-1.0840543	1.0616739	0.29350458	-0.79242538	0.85298157	-0.17331005	-0.96852937	0.81647859	0.32093741
63	0.248	-1.388529	0.08071334	-0.038580325	-0.63644676	0.039778717	0.10369297	-1.4002216	0.23490597	-0.093858787	-0.78270824	0.053578448	0.14184779	-1.3797573	0.22496545	0.0013849833	-0.77958826	0.090412934	0.048933635	-1.4610487	0.28460161	-0.050998863	-0.85146703	0.032384662	0.095168305	-1.0288786	0.42342387	-0.10878689	-0.75890393	0.51022155	0.18814743	-1.0268971	0.41221077	0.017638007	-0.77746531	0.49428972	0.063011808	-0.98709619	0.83110075	-0.12336258	-0.9646632	0.85987434	0.24870473	-0.89601392	0.9185983	-0.069901573	-0.89176128	0.94832607	0.17027904	-1.0606157	0.9857769	0.052908331	-0.87627643	1.377794	-0.10792625	-0.91860536	1.3911202	0.21859434	-0.96476085	1.4388116	0.049462481	-0.99753218	1.0238759	-0.18059275	-1.0771984	1.0623025	0.29396354	-0.78848964	0.85191043	-0.1734063	-0.96035254	0.81748584	0.32103948
64	0.252	-1.3760659	0.083500121	-0.040167348	-0.63633777	0.039692796	0.10346401	-1.387861	0.23802523	-0.093646595	-0.78292671	0.053594374	0.14193519	-1.367687	0.22710377	0.0019225623	-0.77932059	0.090358915	0.048743804	-1.4486479	0.28758007	-0.050180687	-0.85152383	0.032595982	0.095248949	-1.0153423	0.42330275	-0.10813183	-0.75472828	0.51009476	0.1877455	-1.0131519	0.41246233	0.018494743	-0.77410029	0.49426305	0.062720274	-0.98038126	0.83161127	-0.12300115	-0.95790723	0.86096223	0.24895414	-0.88999688	0.9196523	-0.069757326	-0.88543643	0.9492876	0.17051981	-1.0544241	0.9868272	0.053578802	-0.87026606	1.378701	-0.1078778	-0.91208472	1.3921159	0.21870964	-0.95859042	1.4399702	0.049712658	-0.99182872	1.0249807	-0.18014819	-1.0703787	1.063038	0.29440443	-0.78460934	0.85091034	-0.1735241	-0.95214563	0.81858152	0.32109547
65	0.256	-1.3629271	0.086094223	-0.041655381	-0.63622913	0.039612384	0.10322382	-1.375243	0.24091499	-0.09334851	-0.78310965	0.053646665	0.14203615	-1.3554278	0.22893472	0.0025683542	-0.77903253	0.090319938	0.048567781	-1.4361587	0.29014101	-0.049223238	-0.8515505	0.032672866	0.095314815	-1.0018708	0.42343974	-0.10745195	-0.750749	0.50995733	0.18739553	-0.99878228	0.41281245	0.019329824	-0.77091724	0.49416821	0.062563319	-0.97374785	0.83225909	-0.12269637	-0.95113148	0.86217981	0.24919985	-0.88403038	0.92079359	-0.069657005	-0.87913936	0.95035412	0.1706926	-1.0483503	0.98794883	0.054116371	-0.86438345	1.3796849	-0.10787873	-0.90558406	1.3931822	0.21879484	-0.95243127	1.441209	0.049979887	-0.98612331	1.0261196	-0.17963486	-1.063592	1.0638686	0.2948554	-0.7808073	0.84997994	-0.17366423	-0.94392517	0.81977551	0.3211113
66	0.26	-1.3492189	0.088454337	-0.043033285	-0.63614185	0.039558945	0.10299523	-1.3623512	0.24352428	-0.092975985	-0.78305634	0.053685132	0.14196259	-1.3430413	0.23058108	0.0032738103	-0.77876266	0.09029489	0.048410155	-1.4235523	0.2922892	-0.048261184	-0.85154851	0.032690312	0.095326392	-0.9884844	0.42385058	-0.10675426	-0.74695835	0.509793	0.18710466	-0.98430298	0.41328278	0.020167113	-0.76800178	0.49400504	0.062658668	-0.96716453	0.83304995	-0.12240948	-0.94436591	0.8635261	0.24944759	-0.87811423	0.92201864	-0.06957831	-0.87284834	0.95153242	0.17079559	-1.04238	0.98919231	0.054521282	-0.85861215	1.3807498	-0.10791702	-0.89909227	1.3943297	0.21884893	-0.94629571	1.4425184	0.050234909	-0.98044534	1.0273077	-0.17908883	-1.0568341	1.0647854	0.29533221	-0.77708533	0.84912907	-0.1738222	-0.93570153	0.82107423	0.32109175
67	0.264	-1.3350368	0.090558924	-0.044296481	-0.63608474	0.039545979	0.10279502	-1.3491801	0.24581238	-0.092547965	-0.78277208	0.053708852	0.14169249	-1.3304531	0.23217969	0.0039380171	-0.77852184	0.090275517	0.048270226	-1.4107988	0.29403011	-0.047409036	-0.8515764	0.032717194	0.095301823	-0.97518486	0.4245425	-0.10606036	-0.74330326	0.50959273	0.1868428	-0.9702106	0.41389038	0.021034475	-0.76534016	0.49379842	0.062982408	-0.96061641	0.83398231	-0.12212769	-0.93779188	0.86496311	0.24966541	-0.87223408	0.92332732	-0.069492419	-0.86653584	0.95282051	0.17083738	-1.0365063	0.99057096	0.054814399	-0.85287401	1.381899	-0.1079698	-0.89261438	1.3955599	0.21887311	-0.94019791	1.4438883	0.050462316	-0.97480334	1.0285551	-0.1785247	-1.0500978	1.0657851	0.29583075	-0.77342849	0.84837756	-0.1739949	-0.92748039	0.82248101	0.32104206
68	0.268	-1.3204526	0.092400239	-0.045432283	-0.63605715	0.039561644	0.10262522	-1.335748	0.24775321	-0.092076918	-0.78242308	0.053747086	0.14134873	-1.3172429	0.23380482	0.0043734141	-0.77830293	0.090253227	0.048146129	-1.3978951	0.29537258	-0.046706082	-0.85165149	0.032778759	0.095264347	-0.96199009	0.42551106	-0.10539485	-0.73975141	0.50936169	0.18658549	-0.95660163	0.41463879	0.021949932	-0.76276734	0.49358964	0.06332098	-0.9541203	0.83504801	-0.12187362	-0.93185602	0.86640805	0.24975981	-0.86637593	0.92472058	-0.069379626	-0.86018253	0.95421036	0.17084356	-1.0307276	0.99204053	0.055043749	-0.84708482	1.383141	-0.10801672	-0.8861715	1.3968699	0.21887535	-0.93415612	1.4453172	0.050649375	-0.96919854	1.0298705	-0.17794354	-1.0433791	1.066867	0.29633777	-0.76982658	0.84774273	-0.1741828	-0.91926365	0.8240006	0.3209686
69	0.272	-1.305536	0.093974225	-0.046414976	-0.63605797	0.039578785	0.10248139	-1.3220919	0.24933794	-0.09156877	-0.782193	0.053827173	0.14112165	-1.3030121	0.23538962	0.0044826479	-0.77810412	0.090227889	0.048039492	-1.384856	0.296331	-0.046111498	-0.85174171	0.032849353	0.095225035	-0.94894765	0.42674134	-0.10475533	-0.73637918	0.50911563	0.18636154	-0.94326216	0.41553183	0.022911081	-0.76011592	0.49341116	0.063470464	-0.94772305	0.83623235	-0.12167654	-0.92712159	0.8677606	0.24961048	-0.86054735	0.92619131	-0.069240085	-0.85378365	0.95568662	0.17084743	-1.0250398	0.99354294	0.055252087	-0.84127179	1.3844833	-0.1080608	-0.87978431	1.3982578	0.21886469	-0.92818043	1.446811	0.050785389	-0.96363645	1.0312665	-0.17734337	-1.0366835	1.0680309	0.29684424	-0.76628811	0.84722865	-0.17438528	-0.91105208	0.82563565	0.3208776
70	0.276	-1.2903849	0.095279337	-0.047207461	-0.6360867	0.039582369	0.10236592	-1.3082574	0.25057503	-0.09103407	-0.78206695	0.053944832	0.14110467	-1.2880863	0.23674312	0.004462529	-0.77793926	0.090208239	0.047955214	-1.3716938	0.29692433	-0.045547113	-0.85183559	0.0328519	0.0952015	-0.93603838	0.42819431	-0.10410103	-0.73334187	0.50887003	0.18624005	-0.92998983	0.41658867	0.023891496	-0.75741107	0.49327149	0.063453327	-0.94145231	0.83752239	-0.12153638	-0.92361095	0.86900232	0.24922138	-0.85477216	0.92773282	-0.069088024	-0.84734781	0.95722479	0.17087594	-1.0194317	0.99506167	0.055442542	-0.83557673	1.3859225	-0.10812635	-0.87346188	1.3997243	0.2188444	-0.92226542	1.4483682	0.050874563	-0.95812615	1.0327572	-0.17672353	-1.0300236	1.0692764	0.29734879	-0.76282998	0.84683062	-0.17459705	-0.90285396	0.82738262	0.32077588
71	0.28	-1.2751082	0.096314417	-0.047774181	-0.63613888	0.039571249	0.10229289	-1.2942897	0.25148351	-0.090481209	-0.78186741	0.054076372	0.1412219	-1.2732152	0.23770659	0.0046123824	-0.77782869	0.090203659	0.047897952	-1.3584163	0.29717304	-0.044953675	-0.85198636	0.032678428	0.095231277	-0.92309721	0.42981371	-0.10337466	-0.73069127	0.50862823	0.18625146	-0.91669288	0.41782321	0.024845573	-0.75481707	0.49316311	0.063442053	-0.93523484	0.83892211	-0.12141746	-0.92030468	0.87027626	0.24883111	-0.84904898	0.92936008	-0.068927532	-0.84089057	0.95879925	0.17094274	-1.0138814	0.99662385	0.055600407	-0.83009319	1.3874502	-0.10822919	-0.86721281	1.4012724	0.21881939	-0.9163973	1.4499753	0.050938991	-0.95267182	1.0343494	-0.17608364	-1.0234071	1.0706017	0.29785189	-0.75946106	0.84654782	-0.17481139	-0.89468355	0.82923557	0.32066874
72	0.284	-1.2597288	0.097090173	-0.048118741	-0.63620569	0.039547947	0.10227568	-1.2802199	0.25208484	-0.089906401	-0.781561	0.054209933	0.1413483	-1.2585875	0.23829231	0.0049724871	-0.77778367	0.090217539	0.047870909	-1.345032	0.29709077	-0.044315669	-0.85225263	0.032291159	0.095337848	-0.90998141	0.43156665	-0.10255436	-0.72831838	0.50838428	0.18635435	-0.90332237	0.41922938	0.025721785	-0.75239601	0.49307591	0.063517515	-0.92890507	0.84045635	-0.12126749	-0.91593904	0.87176419	0.24871902	-0.84332579	0.93110556	-0.06873547	-0.83443668	0.96039439	0.17104715	-1.0083669	0.99825081	0.055730567	-0.82477281	1.3890601	-0.10835796	-0.86105229	1.4029048	0.21880324	-0.91056267	1.4516181	0.051001258	-0.94727189	1.036037	-0.17541832	-1.0168284	1.0720002	0.29834969	-0.75618004	0.84638397	-0.17502408	-0.8865534	0.83118944	0.32055775
73	0.288	-1.2441114	0.097649379	-0.048312354	-0.63627956	0.039521458	0.10230896	-1.2660636	0.25239595	-0.089306486	-0.78131438	0.054347114	0.14142889	-1.2438677	0.23861127	0.0053842905	-0.77780013	0.090248544	0.047876545	-1.3315463	0.29667651	-0.043648807	-0.85258904	0.031830108	0.095476227	-0.89677975	0.43345736	-0.10169546	-0.72610883	0.50813934	0.18649272	-0.88985778	0.42082172	0.026470795	-0.75000591	0.49300626	0.063570897	-0.92237848	0.84214366	-0.12105346	-0.91024356	0.87348756	0.2489245	-0.83755264	0.93298273	-0.068484194	-0.82805154	0.96200168	0.17117816	-1.0028799	0.99993633	0.055864322	-0.81951751	1.3907453	-0.10849113	-0.85498514	1.4046145	0.21880633	-0.90474821	1.4532959	0.051072783	-0.94193317	1.0378086	-0.17473149	-1.0102741	1.0734638	0.2988354	-0.75298312	0.84633959	-0.17523191	-0.87847931	0.83323926	0.3204454
